%TF.GenerationSoftware,KiCad,Pcbnew,(6.0.4)*%
%TF.CreationDate,2022-09-22T18:25:19+03:00*%
%TF.ProjectId,TestPlate,54657374-506c-4617-9465-2e6b69636164,rev?*%
%TF.SameCoordinates,Original*%
%TF.FileFunction,Copper,L1,Top*%
%TF.FilePolarity,Positive*%
%FSLAX46Y46*%
G04 Gerber Fmt 4.6, Leading zero omitted, Abs format (unit mm)*
G04 Created by KiCad (PCBNEW (6.0.4)) date 2022-09-22 18:25:19*
%MOMM*%
%LPD*%
G01*
G04 APERTURE LIST*
%TA.AperFunction,ComponentPad*%
%ADD10C,1.600000*%
%TD*%
%TA.AperFunction,ComponentPad*%
%ADD11O,1.600000X1.600000*%
%TD*%
%TA.AperFunction,ComponentPad*%
%ADD12R,2.400000X1.600000*%
%TD*%
%TA.AperFunction,ComponentPad*%
%ADD13O,2.400000X1.600000*%
%TD*%
%TA.AperFunction,Conductor*%
%ADD14C,0.250000*%
%TD*%
%TA.AperFunction,Conductor*%
%ADD15C,0.100000*%
%TD*%
%TA.AperFunction,Conductor*%
%ADD16C,1.000000*%
%TD*%
%TA.AperFunction,Conductor*%
%ADD17C,0.500000*%
%TD*%
G04 APERTURE END LIST*
D10*
%TO.P,R2,1*%
%TO.N,Net-(R2-Pad1)*%
X30480000Y-38100000D03*
D11*
%TO.P,R2,2*%
%TO.N,Net-(R2-Pad2)*%
X35560000Y-38100000D03*
%TD*%
D10*
%TO.P,R1,1*%
%TO.N,Net-(R1-Pad1)*%
X22860000Y-27940000D03*
D11*
%TO.P,R1,2*%
%TO.N,Net-(R1-Pad2)*%
X22860000Y-22860000D03*
%TD*%
D12*
%TO.P,U1,1,~{EN}*%
%TO.N,Net-(R1-Pad2)*%
X28990000Y-23305000D03*
D13*
%TO.P,U1,2,A0*%
%TO.N,Net-(R1-Pad1)*%
X28990000Y-25845000D03*
%TO.P,U1,3,A1*%
%TO.N,Net-(R2-Pad1)*%
X28990000Y-28385000D03*
%TO.P,U1,4,Q0*%
%TO.N,unconnected-(U1-Pad4)*%
X28990000Y-30925000D03*
%TO.P,U1,5,Q1*%
%TO.N,unconnected-(U1-Pad5)*%
X36610000Y-30925000D03*
%TO.P,U1,6,Q2*%
%TO.N,Net-(R2-Pad2)*%
X36610000Y-28385000D03*
%TO.P,U1,7,Q3*%
%TO.N,unconnected-(U1-Pad7)*%
X36610000Y-25845000D03*
%TO.P,U1,8,Vss*%
%TO.N,Vss*%
X36610000Y-23305000D03*
%TD*%
D14*
%TO.N,*%
X43815000Y-25400000D02*
X43815000Y-27940000D01*
X43815000Y-27940000D02*
X46355000Y-25400000D01*
X46355000Y-25400000D02*
X46990000Y-25400000D01*
D15*
X52705000Y-27940000D02*
X54610000Y-29845000D01*
X54610000Y-22860000D02*
X54610000Y-24130000D01*
X48895000Y-27940000D02*
X52705000Y-27940000D01*
X48895000Y-33655000D02*
X48895000Y-22860000D01*
X54610000Y-29845000D02*
X54610000Y-33655000D01*
D14*
X43815000Y-27940000D02*
X43815000Y-31750000D01*
D15*
X54610000Y-33655000D02*
X48895000Y-33655000D01*
D14*
X43815000Y-27940000D02*
X46990000Y-31115000D01*
X46990000Y-31115000D02*
X46990000Y-31750000D01*
D15*
X48895000Y-22860000D02*
X54610000Y-22860000D01*
D14*
%TO.N,Net-(R1-Pad1)*%
X22860000Y-27940000D02*
X24130000Y-27940000D01*
X24130000Y-27940000D02*
X26225000Y-25845000D01*
X26225000Y-25845000D02*
X28990000Y-25845000D01*
D16*
%TO.N,Net-(R1-Pad2)*%
X22860000Y-22860000D02*
X28545000Y-22860000D01*
D14*
X28545000Y-22860000D02*
X28990000Y-23305000D01*
%TO.N,Net-(R2-Pad1)*%
X30480000Y-35560000D02*
X32385000Y-33655000D01*
X30925000Y-28385000D02*
X28990000Y-28385000D01*
X32385000Y-29845000D02*
X30925000Y-28385000D01*
X30480000Y-38100000D02*
X30480000Y-35560000D01*
X32385000Y-33655000D02*
X32385000Y-29845000D01*
D17*
%TO.N,Net-(R2-Pad2)*%
X33655000Y-29845000D02*
X35115000Y-28385000D01*
X35560000Y-35560000D02*
X33655000Y-33655000D01*
X33655000Y-33655000D02*
X33655000Y-29845000D01*
X35115000Y-28385000D02*
X36610000Y-28385000D01*
X35560000Y-38100000D02*
X35560000Y-35560000D01*
D14*
%TO.N,Vss*%
X41275000Y-24130000D02*
X42545000Y-22860000D01*
X41275000Y-24130000D02*
X41275000Y-31750000D01*
X41275000Y-31750000D02*
X43180000Y-33655000D01*
X36610000Y-23305000D02*
X40450000Y-23305000D01*
X40450000Y-23305000D02*
X41275000Y-24130000D01*
X43180000Y-33655000D02*
X47625000Y-33655000D01*
X42545000Y-22860000D02*
X47625000Y-22860000D01*
%TD*%
M02*
